<svg width="400" height="200" viewBox="0 0 400 200" xmlns="http://www.w3.org/2000/svg">
  <rect width="400" height="200" fill="#e6fffb" rx="12"/>
  <line x1="80" y1="100" x2="200" y2="52" stroke="#13c2c2" stroke-width="1.5" opacity="0.35"/>
  <line x1="200" y1="52" x2="320" y2="100" stroke="#13c2c2" stroke-width="1.5" opacity="0.35"/>
  <line x1="80" y1="100" x2="200" y2="148" stroke="#13c2c2" stroke-width="1.5" opacity="0.35"/>
  <line x1="200" y1="148" x2="320" y2="100" stroke="#13c2c2" stroke-width="1.5" opacity="0.35"/>
  <line x1="80" y1="100" x2="320" y2="100" stroke="#13c2c2" stroke-width="1" opacity="0.18" stroke-dasharray="5 4"/>
  <circle cx="80" cy="100" r="20" fill="#13c2c2" opacity="0.8"/>
  <circle cx="200" cy="52" r="25" fill="#13c2c2" opacity="0.9"/>
  <circle cx="320" cy="100" r="20" fill="#13c2c2" opacity="0.72"/>
  <circle cx="200" cy="148" r="15" fill="#13c2c2" opacity="0.62"/>
  <circle cx="80" cy="100" r="7" fill="white" opacity="0.65"/>
  <circle cx="200" cy="52" r="9" fill="white" opacity="0.65"/>
  <circle cx="320" cy="100" r="7" fill="white" opacity="0.65"/>
  <circle cx="200" cy="148" r="5" fill="white" opacity="0.65"/>
  <polygon points="352,20 368,12 384,20 384,36 368,44 352,36" fill="none" stroke="#13c2c2" stroke-width="1.5" opacity="0.35"/>
  <circle cx="44" cy="162" r="24" fill="#13c2c2" opacity="0.07"/>
</svg>
