<svg xmlns:mydata="http://www.w3.org/2000/svg" mydata:contrastcolor="ffffff" mydata:template="Default" mydata:presentation="2.5" mydata:layouttype="undefined" mydata:specialfontid="undefined" mydata:id1="005" mydata:id2="094" mydata:companyname="SeaLion UI" mydata:companytagline="" version="1.1" xmlns="http://www.w3.org/2000/svg" xmlns:xlink="http://www.w3.org/1999/xlink" viewBox="0 0 550 470" style="background-image: radial-gradient(circle closest-side at center center, rgba(255, 255, 255, 0.07) 0%, rgba(255, 255, 255, 0) 100%);"><defs style="animation-play-state: running;"><filter id="noise-squiggle" style="animation-play-state: running;">
                <feTurbulence id="noise-turbulence" baseFrequency="0.03" numOctaves="2" result="noise" seed="1000" style="animation-play-state: running;">
                    <animate attributeType="XML" attributeName="seed" from="1" to="25" dur="4s" repeatCount="indefinite" style="animation-play-state: running;"></animate>
                </feTurbulence>
                <feDisplacementMap id="noise-displacement" in="SourceGraphic" in2="noise" scale="6" style="animation-play-state: running;"></feDisplacementMap>
            </filter></defs><g fill="#00a9e0" fill-rule="none" stroke="none" stroke-width="1" stroke-linecap="butt" stroke-linejoin="miter" stroke-miterlimit="10" stroke-dasharray="" stroke-dashoffset="0" font-family="none" font-weight="none" font-size="none" text-anchor="none" style="mix-blend-mode: normal; animation-play-state: running;" filter="url(#noise-squiggle)"><g data-paper-data="{&quot;isGlobalGroup&quot;:true,&quot;bounds&quot;:{&quot;x&quot;:83.07485305960589,&quot;y&quot;:115,&quot;width&quot;:383.8502938807883,&quot;height&quot;:240}}" style="animation-play-state: running;"><g data-paper-data="{&quot;isPrimaryText&quot;:true}" fill-rule="nonzero" style="animation-play-state: running;"><path d="M123.1782,343.19008c0,1.43659 -0.18191,2.72859 -0.54572,3.876c-0.36381,1.14741 -0.84423,2.15955 -1.44126,3.03644c-0.59703,0.87688 -1.29667,1.62316 -2.09892,2.23885c-0.80225,0.61568 -1.63249,1.11942 -2.49072,1.51122c-0.85822,0.3918 -1.73044,0.68098 -2.61665,0.86755c-0.88621,0.18657 -1.72111,0.27986 -2.50471,0.27986h-28.06954v-7.27625h28.06954c1.39928,0 2.48605,-0.41046 3.26032,-1.23137c0.77427,-0.82091 1.1614,-1.92168 1.1614,-3.3023c0,-0.67165 -0.10261,-1.28734 -0.30784,-1.84705c-0.20523,-0.55971 -0.49908,-1.0448 -0.88155,-1.45525c-0.38247,-0.41046 -0.8489,-0.72763 -1.39928,-0.95151c-0.55038,-0.22388 -1.1614,-0.33583 -1.83306,-0.33583h-16.73538c-1.17539,0 -2.44407,-0.20989 -3.80604,-0.62968c-1.36197,-0.41978 -2.62598,-1.0961 -3.79205,-2.02895c-1.16607,-0.93285 -2.13623,-2.15489 -2.9105,-3.66611c-0.77427,-1.51122 -1.1614,-3.35827 -1.1614,-5.54115c0,-2.18288 0.38713,-4.02526 1.1614,-5.52715c0.77427,-1.50189 1.74443,-2.72393 2.9105,-3.66611c1.16607,-0.94218 2.43008,-1.62316 3.79205,-2.04295c1.36197,-0.41978 2.63065,-0.62968 3.80604,-0.62968h24.76724v7.27625h-24.76724c-1.38062,0 -2.45807,0.41978 -3.23234,1.25935c-0.77427,0.83957 -1.1614,1.94966 -1.1614,3.33028c0,1.39928 0.38713,2.50471 1.1614,3.31629c0.77427,0.81158 1.85171,1.21737 3.23234,1.21737h16.73538h0.05597c0.7836,0.01866 1.61384,0.12594 2.49072,0.32183c0.87688,0.1959 1.7491,0.49908 2.61665,0.90953c0.86755,0.41046 1.69313,0.92819 2.47672,1.5532c0.7836,0.62501 1.47857,1.37596 2.08493,2.25284c0.60635,0.87688 1.08677,1.88436 1.44126,3.02244c0.35448,1.13808 0.53173,2.42542 0.53173,3.86201z" data-paper-data="{&quot;glyphName&quot;:&quot;S&quot;,&quot;glyphIndex&quot;:0,&quot;firstGlyphOfWord&quot;:true,&quot;word&quot;:1}" style="animation-play-state: running;"></path><path d="M166.929,334.76642c0,1.00748 -0.17724,2.09425 -0.53173,3.26032c-0.35448,1.16607 -0.92819,2.24818 -1.72111,3.24633c-0.79292,0.99815 -1.82839,1.83306 -3.1064,2.50471c-1.27801,0.67165 -2.83121,1.00748 -4.6596,1.00748h-13.12524v-6.91244h13.12524c0.98882,0 1.75376,-0.30318 2.29482,-0.90953c0.54105,-0.60635 0.81158,-1.3573 0.81158,-2.25284c0,-0.95151 -0.30318,-1.69779 -0.90953,-2.23885c-0.60635,-0.54105 -1.33864,-0.81158 -2.19687,-0.81158h-13.12524c-0.98882,0 -1.75376,0.30318 -2.29482,0.90953c-0.54105,0.60635 -0.81158,1.3573 -0.81158,2.25284v10.15877c0,0.97017 0.30318,1.72578 0.90953,2.26683c0.60635,0.54105 1.3573,0.81158 2.25284,0.81158h13.06927v6.94043h-13.12524c-1.00748,0 -2.09425,-0.17724 -3.26032,-0.53173c-1.16607,-0.35448 -2.24818,-0.92819 -3.24633,-1.72111c-0.99815,-0.79292 -1.83306,-1.82839 -2.50471,-3.1064c-0.67165,-1.27801 -1.00748,-2.83121 -1.00748,-4.6596v-10.21474c0,-1.00748 0.17724,-2.09425 0.53173,-3.26032c0.35448,-1.16607 0.92819,-2.24818 1.72111,-3.24633c0.79292,-0.99815 1.82839,-1.83306 3.1064,-2.50471c1.27801,-0.67165 2.83121,-1.00748 4.6596,-1.00748h13.12524c1.00748,0 2.09425,0.17724 3.26032,0.53173c1.16607,0.35448 2.24818,0.92819 3.24633,1.72111c0.99815,0.79292 1.83306,1.82839 2.50471,3.1064c0.67165,1.27801 1.00748,2.83121 1.00748,4.6596z" data-paper-data="{&quot;glyphName&quot;:&quot;e&quot;,&quot;glyphIndex&quot;:1,&quot;word&quot;:1}" style="animation-play-state: running;"></path><path d="M208.80476,344.98116c0,1.00748 -0.17724,2.09425 -0.53173,3.26032c-0.35448,1.16607 -0.92819,2.24818 -1.72111,3.24633c-0.79292,0.99815 -1.82839,1.83306 -3.1064,2.50471c-1.27801,0.67165 -2.83121,1.00748 -4.6596,1.00748h-13.12524c-1.00748,0 -2.09425,-0.17724 -3.26032,-0.53173c-1.16607,-0.35448 -2.24818,-0.92819 -3.24633,-1.72111c-0.99815,-0.79292 -1.83306,-1.82839 -2.50471,-3.1064c-0.67165,-1.27801 -1.00748,-2.83121 -1.00748,-4.6596c0,-1.00748 0.17724,-2.09892 0.53173,-3.27431c0.35448,-1.17539 0.92819,-2.26217 1.72111,-3.26032c0.79292,-0.99815 1.82839,-1.83306 3.1064,-2.50471c1.27801,-0.67165 2.83121,-1.00748 4.6596,-1.00748h13.12524v6.94043h-13.12524c-0.98882,0 -1.75376,0.30318 -2.29482,0.90953c-0.54105,0.60635 -0.81158,1.3573 -0.81158,2.25284c0,0.95151 0.31251,1.69313 0.93752,2.22485c0.62501,0.53173 1.36663,0.79759 2.22485,0.79759h13.06927c0.98882,0 1.75376,-0.29851 2.29482,-0.89554c0.54105,-0.59703 0.81158,-1.34331 0.81158,-2.23885v-10.15877c0,-0.95151 -0.29385,-1.70712 -0.88155,-2.26683c-0.5877,-0.55971 -1.32932,-0.83957 -2.22485,-0.83957h-15.97977v-6.91244h15.97977c1.00748,0 2.09425,0.17724 3.26032,0.53173c1.16607,0.35448 2.24818,0.92819 3.24633,1.72111c0.99815,0.79292 1.83306,1.82839 2.50471,3.1064c0.67165,1.27801 1.00748,2.83121 1.00748,4.6596z" data-paper-data="{&quot;glyphName&quot;:&quot;a&quot;,&quot;glyphIndex&quot;:2,&quot;word&quot;:1}" style="animation-play-state: running;"></path><path d="M258.65642,355h-33.1909c-0.5224,0 -1.00748,-0.09329 -1.45525,-0.27986c-0.44777,-0.18657 -0.8349,-0.44311 -1.1614,-0.7696c-0.3265,-0.3265 -0.58303,-0.71363 -0.7696,-1.1614c-0.18657,-0.44777 -0.27986,-0.93285 -0.27986,-1.45525v-36.46522h7.27625v32.85508h29.58076z" data-paper-data="{&quot;glyphName&quot;:&quot;L&quot;,&quot;glyphIndex&quot;:3,&quot;word&quot;:1}" style="animation-play-state: running;"></path><path d="M276.54854,318.53478h-7.27625v-6.57661h7.27625zM276.54854,355h-7.27625v-30.25242h7.27625z" data-paper-data="{&quot;glyphName&quot;:&quot;i&quot;,&quot;glyphIndex&quot;:4,&quot;word&quot;:1}" style="animation-play-state: running;"></path><path d="M322.39825,344.78526c0,1.25002 -0.15858,2.37411 -0.47575,3.37226c-0.31717,0.99815 -0.73695,1.87503 -1.25935,2.63065c-0.5224,0.75561 -1.12875,1.39928 -1.81906,1.93101c-0.69031,0.53173 -1.41327,0.9655 -2.16888,1.30133c-0.75561,0.33583 -1.52055,0.58303 -2.29482,0.74162c-0.77427,0.15858 -1.50656,0.23788 -2.19687,0.23788h-13.12524c-1.00748,0 -2.10825,-0.17724 -3.3023,-0.53173c-1.19405,-0.35448 -2.29948,-0.93752 -3.31629,-1.7491c-1.01681,-0.81158 -1.86571,-1.86571 -2.54669,-3.16237c-0.68098,-1.29667 -1.02147,-2.88718 -1.02147,-4.77154v-9.85093c0,-1.86571 0.34049,-3.44689 1.02147,-4.74356c0.68098,-1.29667 1.52988,-2.35079 2.54669,-3.16237c1.01681,-0.81158 2.12224,-1.39462 3.31629,-1.7491c1.19405,-0.35448 2.29482,-0.53173 3.3023,-0.53173h13.12524c1.86571,0 3.45156,0.33583 4.75755,1.00748c1.30599,0.67165 2.36012,1.51589 3.16237,2.5327c0.80225,1.01681 1.38529,2.12224 1.7491,3.31629c0.36381,1.19405 0.54572,2.30415 0.54572,3.33028zM315.122,334.99031c0,-1.00748 -0.25187,-1.75376 -0.75561,-2.23885c-0.50374,-0.48508 -1.23137,-0.72763 -2.18288,-0.72763h-13.06927c-0.97017,0 -1.70712,0.24721 -2.21086,0.74162c-0.50374,0.49441 -0.75561,1.21737 -0.75561,2.16888v9.85093c0,0.95151 0.25187,1.67914 0.75561,2.18288c0.50374,0.50374 1.24069,0.75561 2.21086,0.75561h13.06927c0.98882,0 1.72578,-0.25187 2.21086,-0.75561c0.48508,-0.50374 0.72763,-1.23137 0.72763,-2.18288z" data-paper-data="{&quot;glyphName&quot;:&quot;o&quot;,&quot;glyphIndex&quot;:5,&quot;word&quot;:1}" style="animation-play-state: running;"></path><path d="M368.08006,355h-7.27625v-16.79135c0,-0.95151 -0.16325,-1.80507 -0.48975,-2.56068c-0.3265,-0.75561 -0.7696,-1.40394 -1.32932,-1.945c-0.55971,-0.54105 -1.21737,-0.95617 -1.97298,-1.24536c-0.75561,-0.28918 -1.57186,-0.43378 -2.44874,-0.43378h-12.73344v22.97617h-7.27625v-26.64228c0,-0.50374 0.09329,-0.97483 0.27986,-1.41327c0.18657,-0.43844 0.44777,-0.82091 0.7836,-1.14741c0.33583,-0.3265 0.72763,-0.58303 1.17539,-0.7696c0.44777,-0.18657 0.92352,-0.27986 1.42726,-0.27986h16.39955c0.9142,0 1.8797,0.10261 2.89651,0.30784c1.01681,0.20523 2.02429,0.53639 3.02244,0.99349c0.99815,0.4571 1.94966,1.03547 2.85453,1.73511c0.90487,0.69964 1.70712,1.54854 2.40676,2.54669c0.69964,0.99815 1.25469,2.15023 1.66514,3.45622c0.41046,1.30599 0.61568,2.7799 0.61568,4.42172z" data-paper-data="{&quot;glyphName&quot;:&quot;n&quot;,&quot;glyphIndex&quot;:6,&quot;lastGlyphOfWord&quot;:true,&quot;word&quot;:1}" style="animation-play-state: running;"></path><path d="M445.17102,351.33389c0,0.5224 -0.09329,1.00748 -0.27986,1.45525c-0.18657,0.44777 -0.44777,0.8349 -0.7836,1.1614c-0.33583,0.3265 -0.72763,0.58303 -1.17539,0.7696c-0.44777,0.18657 -0.92352,0.27986 -1.42726,0.27986h-16.39955c-1.54854,0 -3.11573,-0.16791 -4.70158,-0.50374c-1.58585,-0.33583 -3.12039,-0.85356 -4.60363,-1.5532c-1.48324,-0.69964 -2.87785,-1.59051 -4.18385,-2.67262c-1.30599,-1.08211 -2.44874,-2.36478 -3.42823,-3.84802c-0.9795,-1.48324 -1.7491,-3.18103 -2.30881,-5.09338c-0.55971,-1.91235 -0.83957,-4.04392 -0.83957,-6.39471v-20.06566h7.27625v20.06566c0,2.05228 0.28452,3.78738 0.85356,5.20532c0.56904,1.41794 1.292,2.60266 2.16888,3.55417c0.87688,0.95151 1.83772,1.69779 2.88252,2.23885c1.0448,0.54105 2.03828,0.94218 2.98046,1.20338c0.94218,0.2612 1.77242,0.42445 2.49072,0.48975c0.7183,0.0653 1.18939,0.09795 1.41327,0.09795h12.78941v-32.85508h7.27625z" data-paper-data="{&quot;glyphName&quot;:&quot;U&quot;,&quot;glyphIndex&quot;:7,&quot;firstGlyphOfWord&quot;:true,&quot;word&quot;:2}" style="animation-play-state: running;"></path><path d="M466.92515,355h-7.27625v-40.13133h7.27625z" data-paper-data="{&quot;glyphName&quot;:&quot;I&quot;,&quot;glyphIndex&quot;:8,&quot;lastGlyphOfWord&quot;:true,&quot;word&quot;:2}" style="animation-play-state: running;"></path></g><g data-paper-data="{&quot;fillRule&quot;:&quot;evenodd&quot;,&quot;fillRuleOriginal&quot;:&quot;evenodd&quot;,&quot;isIcon&quot;:true,&quot;iconStyle&quot;:&quot;standalone&quot;,&quot;selectedEffects&quot;:{&quot;container&quot;:&quot;&quot;,&quot;transformation&quot;:&quot;&quot;,&quot;pattern&quot;:&quot;&quot;},&quot;bounds&quot;:{&quot;x&quot;:211.7724591602564,&quot;y&quot;:115,&quot;width&quot;:126.4550816794872,&quot;height&quot;:165.6538213202639},&quot;iconType&quot;:&quot;icon&quot;,&quot;rawIconId&quot;:&quot;a57de377-6c17-4d61-a45d-a3fa9f79ad0c&quot;,&quot;isSvgStockIcon&quot;:true,&quot;combineTerms&quot;:&quot;animal,lion&quot;,&quot;combineTermsExtended&quot;:{&quot;icon&quot;:[&quot;animal&quot;,&quot;lion&quot;]},&quot;isDetailed&quot;:true,&quot;suitableAsStandaloneIcon&quot;:true}" fill-rule="evenodd" style="animation-play-state: running;"><path d="M303.43191,280.65381h0.03502c1.84264,0 3.55669,-0.17096 5.20394,-0.51348l0.66061,-0.13742c6.66375,-1.3783 7.68776,-1.59046 8.65675,-8.96101l0.09122,-0.67738c0.10005,-0.71946 0.20333,-1.46276 0.24836,-2.20281c0.59381,-9.8426 -0.13065,-19.78115 -2.15279,-29.54018c-1.10846,-5.34636 -2.60153,-10.69948 -4.04662,-15.87694c-0.5379,-1.92797 -1.07581,-3.85624 -1.59517,-5.78804c-0.23364,-0.86776 -0.23659,-1.41273 -0.00883,-1.76613c0.19922,-0.31015 0.60764,-0.5123 1.24883,-0.61853c0.71946,-0.11888 1.4039,-0.40931 2.11659,-0.71269c10.03094,-4.26849 16.11058,-9.9456 19.13437,-17.86876c3.4534,-9.05311 5.18805,-17.89054 5.20335,-26.63675v-0.2357c-0.0153,-8.61585 -1.69904,-17.14371 -5.05151,-25.70277c-4.04074,-10.31754 -10.42965,-17.4674 -19.53279,-21.85859c-9.3615,-4.51568 -19.03815,-6.55664 -24.1488,-6.55664c-0.04414,0 -0.08739,0.00088 -0.13065,0.00088h-0.00089c-19.22852,0.1895 -31.9063,3.01467 -42.74115,6.04052c-15.85339,4.4274 -26.3831,14.20998 -31.29543,29.07496c-2.63595,7.97437 -3.31333,16.1606 -3.52049,25.99938c-0.12182,5.78804 0.00972,11.91477 1.78173,17.49888c2.42879,7.65245 8.04587,13.60645 16.69467,17.69721c5.62031,2.65744 11.61551,4.19287 17.25642,5.45729c0.57145,0.12771 0.87365,0.26807 0.97781,0.45551c0.10594,0.18862 0.06885,0.5282 -0.11594,1.06904c-4.14756,12.15841 -6.50484,23.32724 -7.20665,34.14442l-0.08062,1.24765c-0.36518,5.58206 -0.74211,11.35332 -0.58322,17.06103c0.11976,4.30263 1.96828,6.82471 5.81746,7.93612c4.03191,1.1632 8.03704,1.56574 12.23492,1.23294c0.94927,-0.07562 1.92414,-0.33281 2.86842,-0.58116c1.4863,-0.39166 2.89196,-0.76095 4.03191,-0.40843c5.82717,1.79732 11.73027,1.47688 17.44592,1.16643l0.03825,-0.00206c0.81392,-0.04414 1.62872,-0.08945 2.44351,-0.12771c0.57233,-0.02737 1.14377,-0.05885 1.71493,-0.08945c3.25242,-0.17773 6.61872,-0.35929 9.93294,0.19539c2.31875,0.38842 4.41827,0.58381 6.37361,0.58498zM283.63341,120.81834c-0.04708,1.30562 -0.08945,2.61242 -0.13153,3.91804c-0.13742,4.23024 -0.27866,8.60466 -0.58145,12.89817c-0.05003,0.71093 0.02443,1.15349 0.23452,1.39213c0.2354,0.26983 0.71857,0.35046 1.37035,0.38959l1.27413,0.0718c3.06675,0.16596 6.23766,0.33781 9.23673,1.4451c0.31397,0.11594 0.54967,0.13565 0.69886,0.06297c0.2307,-0.11388 0.35046,-0.50259 0.47611,-0.91485l0.03031,-0.09622c1.90532,-6.15439 3.74412,-12.17695 5.30016,-18.20363c0.14801,-0.57439 0.14919,-0.9534 0.00383,-1.19086c-0.13242,-0.21687 -0.42696,-0.37106 -0.92573,-0.48287c-4.44122,-0.99841 -8.74297,-1.90267 -12.55389,-2.00772l-0.87071,0.00206l-0.10387,0.00027c-0.28749,0.0008 -0.46522,0.00127 -0.64119,-0.00321c-0.50877,-0.01383 -0.95722,-0.02648 -1.33622,-0.02648c-0.71563,0 -1.18497,0.04414 -1.34593,0.20422c-0.15243,0.15166 -0.14419,0.56306 -0.13153,1.18606v0.00568l0.00118,0.06144c0.00648,0.35664 0.01442,0.7816 -0.00412,1.28831zM280.73351,118.12942c-3.52697,0.17008 -8.17535,0.47611 -12.8611,1.35093c-1.02401,0.19068 -1.17614,0.50288 -1.1373,1.40625c0.29867,6.86414 0.50083,12.13575 0.6559,17.09046c0.01677,0.52231 0.11182,0.8454 0.30132,1.01607c0.17862,0.16126 0.49376,0.21716 0.9581,0.19156c1.28619,-0.0921 2.59093,-0.14419 3.97306,-0.19922c0.61176,-0.02443 1.24471,-0.04914 1.90943,-0.07945l0.01383,-0.00089l0.01383,0.00089c0.45551,0.02178 0.93868,0.0412 1.44216,0.06091c1.23206,0.05032 2.62801,0.10623 4.00249,0.20922c0.54673,0.03914 0.89513,-0.02737 1.10435,-0.21599c0.20922,-0.18774 0.31927,-0.54291 0.33781,-1.08787c0.19922,-5.86484 0.45257,-12.02011 0.75389,-18.29603c0.02943,-0.60264 -0.05297,-0.97959 -0.25924,-1.18586c-0.18067,-0.18038 -0.49464,-0.26689 -0.9787,-0.26689c-0.07268,0 -0.14919,0.00206 -0.22981,0.00589zM264.08973,120.00678c-4.15432,0.86865 -8.20213,1.6549 -12.02865,2.33728c-1.20145,0.21393 -1.49807,0.68415 -1.27178,2.01361c0.93073,5.43669 1.81822,10.96255 2.6389,16.12529c0.08151,0.50847 0.20922,0.80715 0.39078,0.91308c0.16008,0.09239 0.42226,0.06974 0.77861,-0.0618c3.13178,-1.18085 6.45865,-1.54426 9.67577,-1.8956l0.5173,-0.05591c0.96869,-0.10681 1.20851,-0.24423 1.14555,-1.25648c-0.10535,-1.74141 -0.09652,-3.51196 -0.07651,-5.23749l-0.41402,-4.97795c-0.00089,-0.15802 -0.00147,-0.31603 -0.00235,-0.47434c-0.01059,-2.01448 -0.0206,-4.09664 0.03148,-6.14556c0.01766,-0.6815 -0.06385,-1.05845 -0.26307,-1.22528c-0.10799,-0.09034 -0.27484,-0.13536 -0.50259,-0.13536c-0.17067,0 -0.37695,0.0256 -0.61941,0.07651zM303.87124,121.03462c-0.13035,-0.02472 -0.24041,-0.03737 -0.33368,-0.03737c-0.43403,0 -0.52437,0.26895 -0.66414,0.85629c-1.73758,7.33142 -3.39749,13.29424 -5.22454,18.76331c-0.30632,0.91896 -0.11299,1.34799 0.86394,1.91738c2.14396,1.24971 4.41268,2.67509 6.93564,4.35766c0.41137,0.27395 0.68503,0.42314 0.88836,0.38283c0.16772,-0.03443 0.35546,-0.2151 0.57233,-0.55173c1.76231,-2.72335 4.14284,-4.23201 7.07718,-4.48242c0.61265,-0.05208 1.05638,-0.40431 1.49424,-0.79214c0.72446,-0.64119 1.44598,-1.28502 2.1675,-1.92915c1.88001,-1.67756 3.82387,-3.4125 5.78627,-5.06063c0.39872,-0.33486 0.59587,-0.61559 0.60382,-0.86012c0.00883,-0.2563 -0.18067,-0.55085 -0.63412,-0.98576l-0.63324,-0.61058c-1.82204,-1.75848 -3.70676,-3.5764 -5.84895,-5.01562c-3.76267,-2.52767 -8.03204,-4.47448 -13.0506,-5.95194zM248.11745,123.44546c-4.90262,1.60223 -10.54235,3.59582 -15.4126,7.00244c-0.9581,0.66973 -1.06992,1.1782 -0.47787,2.1772c1.41273,2.3826 2.70275,4.73077 3.83359,6.98096c1.02284,2.03332 2.1107,3.29568 4.3656,3.30156c1.3118,0.00294 2.49059,0.70092 3.63143,1.37536l0.07945,0.04797c0.3278,0.19215 2.01331,-0.03443 4.26732,-0.75212c2.10953,-0.67356 3.39073,-1.3577 3.5252,-1.6602c0.01059,-0.02384 0.01854,-0.05032 0.02443,-0.07474l-0.00589,-0.03443l-0.74506,-4.95852c-0.65884,-4.3812 -1.29297,-8.60261 -1.91738,-12.8249c-0.04797,-0.32986 -0.14713,-0.54202 -0.29249,-0.63236c-0.07062,-0.04444 -0.1639,-0.06591 -0.28073,-0.06591c-0.15508,0 -0.35252,0.03914 -0.59499,0.11771zM229.21791,133.16125c-5.30192,5.02444 -9.08755,11.12174 -11.57019,18.6406c-0.14124,0.42991 -0.1589,0.73623 -0.0512,0.88512c0.15625,0.21687 0.66561,0.25924 1.04461,0.23953h0.17979c1.32328,0 2.76425,0.0462 4.39885,0.14242c3.20567,0.19126 3.20623,0.18862 3.86871,-2.7719l0.004,-0.01795c0.35046,-1.56781 1.09758,-2.94787 2.22164,-4.11224c1.78585,-1.84852 3.95923,-3.01496 6.63432,-3.55875c-0.44462,-0.84246 -0.88631,-1.66785 -1.32328,-2.48177c-1.19763,-2.23841 -2.32963,-4.35089 -3.37896,-6.53427c-0.33104,-0.68798 -0.61088,-1.03167 -0.88072,-1.08169c-0.26689,-0.05885 -0.6353,0.1639 -1.1476,0.6509zM325.14456,135.05302c-0.01471,-0.00176 -0.03031,-0.00383 -0.04708,-0.00383c-0.1689,0 -0.38371,0.11388 -0.6403,0.3384c-1.76819,1.54808 -3.54992,3.08264 -5.33076,4.61601l-2.14219,1.84646c-0.40048,0.34575 -0.42903,0.48317 -0.42314,0.52731c0.00294,0.01471 0.03443,0.14919 0.47523,0.34545c3.82563,1.7061 5.72919,4.76402 5.65857,9.08842c-0.00707,0.42108 0.05973,0.69209 0.19627,0.80391c0.11976,0.09711 0.34075,0.10975 0.66179,0.03914l0.01677,-0.00294l2.03891,-0.32986c1.88766,-0.30338 3.75502,-0.60382 5.61825,-0.92279c0.40255,-0.06885 0.83569,-0.17303 0.99165,-0.42814c0.10122,-0.16508 0.09828,-0.41932 -0.00677,-0.75594c-1.44127,-4.5857 -3.33599,-9.91029 -6.46748,-14.62841c-0.22069,-0.33486 -0.41696,-0.50877 -0.5997,-0.53319zM287.35223,198.55048l1.10258,-0.1483c12.32319,-1.65313 19.99007,-8.48196 23.44082,-20.87695c3.95541,-14.21379 -1.14642,-26.57348 -13.64647,-33.06155c-3.55462,-1.84558 -6.4713,-2.74277 -9.45772,-2.90873c-1.18968,-0.06591 -2.37966,-0.15713 -3.56846,-0.24747c-1.6649,-0.12741 -3.3866,-0.25895 -5.07917,-0.31603c-1.86736,-0.06268 -3.75913,-0.10594 -5.66945,-0.10594c-7.94994,0 -16.21975,0.73917 -24.33242,3.80592c-5.04769,1.90943 -8.26186,5.22777 -10.42259,10.76245c-3.88184,9.93971 -3.81799,20.32404 0.18715,30.86375c2.63007,6.91799 7.47177,11.12939 14.39182,12.51563c4.8064,0.96222 9.75728,1.37742 12.5383,1.44216c8.25038,-0.07268 14.48599,-0.91308 20.5156,-1.72494zM312.84519,148.4326c1.44892,-0.47905 3.12972,-0.43962 4.25143,0.71946c1.16349,1.20381 1.40184,2.6951 0.73093,4.55657c-0.64501,1.78879 -1.79379,3.29656 -3.41544,4.48153c-0.90131,0.65884 -0.95545,1.40096 -0.17979,2.48177c0.13742,0.19156 0.2719,0.29455 0.40048,0.30632c0.2357,0.0206 0.62148,-0.31397 0.90719,-0.58792c0.13948,-0.13359 0.27277,-0.26013 0.39754,-0.35546c2.62389,-2.01037 4.20935,-4.56481 4.71105,-7.59331c0.35163,-2.1213 -0.21687,-4.25054 -1.55985,-5.841c-1.38212,-1.63931 -3.41838,-2.54827 -5.73213,-2.56209c-2.09482,0.03443 -4.02985,1.97034 -5.28339,3.58817c-0.88689,1.14377 -0.24335,1.85735 0.50171,2.68421l0.00176,0.00176l0.22275,0.25041c0.30514,0.34752 0.45257,0.35722 0.49464,0.36017c0.18921,0.01324 0.63825,-0.49347 0.99517,-0.8963c0.18185,-0.2051 0.33986,-0.38341 0.42696,-0.45169c0.63353,-0.49583 1.36506,-0.89012 2.12895,-1.1426zM235.86135,157.09524c-1.33916,-0.52731 -2.37672,-1.54721 -2.92168,-2.87254c-0.49583,-1.20646 -0.50259,-2.52767 -0.01912,-3.62584c0.47611,-1.08081 1.40479,-1.93386 2.54562,-2.3414c1.22823,-0.43492 2.5771,-0.32986 3.81004,0.29544c1.80144,0.91779 2.42467,0.07268 3.21005,-0.99841c0.20716,-0.28073 0.4202,-0.57145 0.66179,-0.83157c0.14153,-0.1533 0.20422,-0.28955 0.18567,-0.40549c-0.02443,-0.15213 -0.1895,-0.32104 -0.46522,-0.47523c-1.70316,-0.94927 -3.41633,-1.4245 -5.12537,-1.4245c-1.3627,0 -2.72247,0.3025 -4.07223,0.90719c-3.25919,1.46069 -4.94588,3.77649 -5.01355,6.88268c-0.09122,3.81681 2.3826,7.27345 5.88044,8.21772c0.11594,0.03119 0.23364,0.06768 0.35252,0.10299l0.01213,0.00353c0.47143,0.14331 0.95637,0.29043 1.24259,0.11035c0.19244,-0.11888 0.32809,-0.39754 0.40166,-0.82951c0.04325,-0.24953 0.11771,-0.4967 0.19244,-0.74123l0.00036,-0.00118c0.2658,-0.87512 0.44165,-1.45393 -0.87812,-1.97299zM316.85798,172.70823c5.68593,-0.2975 11.35744,-0.53702 16.85682,-0.71269c1.08699,-0.03443 1.37947,-0.31809 1.42509,-1.3783c0.22981,-5.20777 -0.36223,-10.63563 -1.81027,-16.59257c-0.29043,-1.20646 -0.74094,-1.34387 -1.84941,-1.15349c-2.53768,0.45139 -5.03033,0.81568 -7.40792,1.08169c-1.18409,0.13359 -1.95151,0.46434 -2.37083,1.76025c-0.81892,2.53591 -2.2905,4.47271 -4.14284,5.45346c-2.79368,1.47893 -2.66862,3.75472 -2.53326,6.21501c0.06239,1.13613 0.12712,2.31168 -0.09269,3.46635c-0.14212,0.74123 -0.09504,1.23411 0.14242,1.50689c0.2613,0.29955 0.79714,0.40931 1.78291,0.35341zM216.46686,156.67033c-0.73917,4.02779 -1.32622,7.38909 -1.60606,10.91635c-0.0565,0.71357 -0.11388,1.43892 -0.16861,2.17426l1.93092,0.11505c1.20057,-0.07562 2.39908,-0.15508 3.59876,-0.23364c3.15709,-0.20804 6.42128,-0.42402 9.63633,-0.5841l0.08828,-0.00383c5.05887,-0.25306 5.05887,-0.25306 5.7489,-5.12537l0.01383,-0.09828c0.06091,-0.42991 0.04031,-0.72475 -0.02795,-0.96958c-0.02384,-0.09417 -2.99318,-0.84011 -3.34864,-1.00195c-0.85805,-0.39078 -1.66873,-0.88807 -2.38908,-1.49748c-1.43568,-1.21469 -2.20811,-2.67421 -2.88843,-4.39532c-0.06032,-0.15301 -0.12271,-0.30897 -0.22776,-0.43579c-0.68097,-0.82098 -2.59258,-0.72181 -3.94558,-0.65148c-0.38047,0.01971 -0.71678,0.03707 -0.96911,0.03119c-1.57133,-0.03707 -3.14296,-0.07386 -4.71429,-0.11094c-0.32868,0.35311 -0.55791,0.93015 -0.73153,1.87089zM279.79894,172.02114c0.90102,-2.78073 1.21234,-4.26791 0.54614,-5.19688c-0.87748,-1.22382 -2.62036,-1.30326 -3.98248,-1.29974c-0.32927,0.00059 -0.65825,0.00383 -0.98723,0.00971c-1.36977,0.02413 -2.73866,0.09063 -4.10518,0.18626c-0.13565,0.00942 -0.27954,0.01618 -0.42873,0.02325c-0.9531,0.04473 -2.11218,0.09887 -2.65184,0.93721c-0.25718,0.3996 -0.29455,0.89543 -0.11005,1.47364l0.21981,0.69209c0.9787,3.09618 1.99183,6.29652 3.87566,9.07665c0.70386,1.0405 1.53749,1.60105 2.45528,1.62165c0.86865,0 1.72876,-0.53702 2.48853,-1.55603c1.31945,-1.76701 1.99477,-3.85124 2.64773,-5.86661zM300.30867,168.41119l-0.00089,-0.02943c-0.02766,-1.02284 -0.55379,-1.64813 -1.48365,-1.76113c-1.05314,-0.12948 -1.81027,0.45669 -2.06245,1.55515c-0.11476,0.49759 -0.02648,0.95986 0.25041,1.30356c0.26895,0.33457 0.68827,0.5173 1.18292,0.5173h0.02354c1.21146,-0.01471 1.91326,-0.53878 2.08511,-1.55691zM255.27231,169.68267c0.2769,-0.26307 0.42196,-0.63118 0.43285,-1.09464c0.02648,-1.15761 -0.56939,-1.83882 -1.67609,-1.91826l-0.02354,-0.00206l-0.02354,0.00206c-1.03255,0.08739 -1.61871,0.70298 -1.60988,1.68757c0.00883,1.08198 0.57939,1.71817 1.56398,1.74554c0.02943,0.00089 0.05885,0.00089 0.08739,0.00089c0.53525,0 0.95427,-0.14124 1.24883,-0.42108zM214.79489,171.2493l-0.20922,-0.01677c-0.31809,4.61307 -0.49258,9.58454 0.14036,14.5669c4.56599,-1.17026 9.04929,-2.64978 13.38841,-4.08106c1.19939,-0.39548 2.3982,-0.79125 3.59876,-1.17997l0.10711,-0.03443c2.02905,-0.65737 3.04321,-0.98605 3.48227,-1.67903c0.43877,-0.69238 0.30326,-1.74877 0.03234,-3.86065c-0.1436,-1.11936 -0.20245,-2.07746 -0.18273,-2.94228c0.01177,-0.5282 -0.08033,-0.87953 -0.28367,-1.07404c-0.20598,-0.20039 -0.57321,-0.28661 -1.12789,-0.24453c-1.85735,0.11505 -3.74707,0.17773 -5.575,0.23864l-1.65313,0.05679c-1.05815,0.03825 -2.11659,0.09917 -3.18063,0.16096l-0.00629,0.0003c-2.73818,0.15919 -5.56714,0.32339 -8.53069,0.08916zM331.69943,190.44958c1.48041,-4.48359 2.51501,-9.37709 3.25625,-15.40289c0.06474,-0.52525 0.01589,-0.86982 -0.15154,-1.05432c-0.17273,-0.19333 -0.5173,-0.27366 -1.12201,-0.26394c-0.90367,0.01883 -1.81321,0.02854 -2.72041,0.03237l-7.61214,0.42167c-0.38283,0.00324 -0.76566,0.00677 -1.14849,0.0103c-2.07039,0.02354 -4.20935,0.04296 -6.31711,-0.06002c-0.07768,-0.00383 -0.15301,-0.00589 -0.22481,-0.00589c-0.9834,0 -1.36241,0.36812 -1.51954,1.41273c-0.32692,2.16367 -1.01489,4.43739 -2.10276,6.94859c-0.32192,0.7433 -0.39842,1.26442 -0.24247,1.64049c0.15919,0.38283 0.5841,0.69298 1.37742,1.00518c2.27667,0.8963 4.63661,1.69345 6.92005,2.465c3.3151,1.12112 6.74408,2.27931 9.9965,3.76472c0.42903,0.19627 0.743,0.24364 0.9581,0.15125c0.24747,-0.10799 0.44197,-0.42696 0.65296,-1.06521zM225.74273,205.48201c0.34752,0.32192 0.61941,0.4408 0.85805,0.44963c0.22187,-0.0156 0.45345,-0.17273 0.70769,-0.48287c3.76472,-4.58659 7.8908,-8.63792 12.50475,-13.08208c0.65266,-0.62912 0.70269,-0.98164 0.23158,-1.64225c-1.79762,-2.51795 -2.57122,-5.42964 -3.04439,-7.6857c-0.17773,-0.84717 -0.42196,-1.33592 -0.7686,-1.53926c-0.15007,-0.08739 -0.33457,-0.13242 -0.56733,-0.13242c-0.31603,0 -0.7224,0.08269 -1.25354,0.25041c-6.76203,2.13336 -12.34085,3.7915 -17.55773,5.21983l-0.11388,0.03148c-0.90513,0.24747 -1.68668,0.46051 -1.89178,0.88072c-0.10681,0.2201 -0.07357,0.53025 0.10122,0.94839l0.02148,0.07945c0.05591,0.44786 0.08858,0.85129 0.11888,1.22234c0.05591,0.69592 0.10034,1.24588 0.27101,1.74641c1.89678,5.56823 5.82364,9.51569 10.38257,13.73592zM318.87658,207.77544c4.2832,-2.89873 8.97367,-6.68905 11.29241,-12.8199c0.41519,-1.09876 0.23953,-1.50307 -0.85482,-1.96769c-2.4335,-1.03461 -4.97236,-1.93592 -7.42646,-2.80869c-3.49284,-1.24088 -7.10454,-2.52414 -10.49733,-4.21553c-0.11299,-0.05591 -0.22393,-0.11476 -0.31721,-0.16478l-0.02354,-0.01266c-0.01353,-0.00089 -0.02648,-0.00089 -0.03914,-0.00089c-0.24953,0 -0.37312,0.15213 -0.54791,0.48111c-1.25648,2.36583 -2.96258,4.5551 -5.07035,6.50573c-0.53614,0.4967 -0.53908,0.80774 -0.01383,1.39095c3.78032,4.18992 7.71601,8.59584 12.03159,13.46697c0.47611,0.5379 0.83539,0.57645 1.46657,0.14536zM276.14221,187.79274l-0.005,-0.03031c-0.16272,-1.2191 -0.92279,-1.31945 -1.37712,-1.26766c-0.99841,0.1127 -1.54808,0.76948 -1.46952,1.75613c0.03914,0.50377 0.26013,0.77772 0.43873,0.91896c0.20303,0.16096 0.46316,0.24335 0.76271,0.24335c0.08945,0 0.18156,-0.00677 0.2769,-0.02148c0.82245,-0.12565 1.30944,-0.68209 1.37035,-1.56868zM245.70572,213.16123c0.21687,-0.09622 0.39577,-0.34369 0.54585,-0.75801c1.2603,-3.46752 2.83517,-7.55123 4.96265,-11.53988c0.19539,-0.36605 0.25924,-0.6353 0.1895,-0.80008c-0.06385,-0.15508 -0.27101,-0.28572 -0.61352,-0.38783c-3.12383,-0.92986 -5.90986,-2.8746 -8.51727,-5.94429c-0.32515,-0.38195 -0.55762,-0.55585 -0.75507,-0.56262h-0.01266c-0.18538,0 -0.41314,0.14036 -0.69592,0.42991c-4.03692,4.12901 -8.1471,8.27687 -12.21638,12.32731c-0.40048,0.39754 -0.58911,0.73623 -0.54585,0.9787c0.04208,0.2357 0.31132,0.46728 0.79714,0.68827c4.78256,2.17456 10.04064,3.971 16.07321,5.49172l0.04031,0.01383c0.31309,0.12594 0.55556,0.14654 0.748,0.06297zM298.16942,213.81066c6.42246,-0.43668 11.88858,-1.68139 16.71057,-3.80592c0.73034,-0.32192 1.07992,-0.57527 1.13171,-0.8198c0.05297,-0.25041 -0.16772,-0.64619 -0.67532,-1.20763c-4.08782,-4.51979 -7.94583,-9.07665 -10.85073,-12.54212c-0.43373,-0.5173 -0.75477,-0.76477 -1.11318,-0.76477c-0.28367,0 -0.59087,0.15508 -0.99636,0.45551c-2.76072,2.04391 -5.48378,3.3201 -8.32395,3.90038c-0.45846,0.09328 -0.73623,0.23364 -0.84922,0.42696c-0.11858,0.20333 -0.09593,0.52613 0.0718,1.0455c1.04461,3.218 1.68462,6.5793 2.30403,9.82966c0.12065,0.63619 0.24158,1.27119 0.36518,1.90649c0.16802,0.86099 0.4202,1.36565 0.7942,1.58752c0.32015,0.19039 0.76566,0.1895 1.36065,0.00089zM278.26468,205.59206c0.08945,0.98576 0.18156,2.00478 0.0206,2.95111c0,0.52613 0.00294,1.05932 0.00589,1.59781l0.00059,0.0868c0.00648,1.29915 0.01324,2.64155 -0.0203,3.97836c-0.01088,0.44286 0.05885,0.72946 0.21393,0.87777c0.1533,0.14625 0.43579,0.20392 0.87276,0.17067c4.36589,-0.32192 9.31353,-0.68709 14.14347,-0.9531c0.49259,-0.02648 0.81274,-0.13242 0.95016,-0.31309c0.17479,-0.22864 0.12859,-0.65296 0.00589,-1.22028c-0.2563,-1.18586 -0.49082,-2.37672 -0.72446,-3.56639c-0.27101,-1.37653 -0.55056,-2.79897 -0.86188,-4.18905c-0.10799,-0.48406 -0.18745,-1.01813 -0.26513,-1.53544c-0.20716,-1.38595 -0.42196,-2.81928 -1.17497,-3.42604c-0.78537,-0.63118 -2.02243,-0.28867 -3.33482,0.07857c-0.64501,0.17979 -1.31151,0.36518 -1.94092,0.43109c-0.23659,0.02472 -0.47022,0.05032 -0.70475,0.08357c-0.71593,0.10505 -1.49924,0.13859 -2.25607,0.17185c-1.65019,0.07062 -3.3563,0.14419 -4.28998,0.96487c-0.91279,0.80097 -0.78037,2.26284 -0.64001,3.81092zM248.11569,212.23991c-0.25247,0.57645 -0.31132,0.979 -0.18067,1.22823c0.13859,0.26336 0.52731,0.4458 1.2606,0.58998c3.1356,0.61647 5.99813,1.01018 8.75091,1.20351c0.30927,0.01383 0.62059,0.02443 0.93073,0.03531c0.71857,0.02354 1.46157,0.04914 2.19398,0.11594c0.83245,0.0718 1.0964,-0.15595 1.17997,-1.02784c0.374,-3.89744 0.84334,-7.78487 1.2094,-10.73685c0.08239,-0.66179 0.01177,-1.10641 -0.22187,-1.3989c-0.24364,-0.30455 -0.69503,-0.47905 -1.42156,-0.55085c-2.47382,-0.24541 -4.89556,-0.65002 -7.36555,-1.07698c-1.06433,-0.18656 -1.54044,0.06562 -1.90856,0.98164c-1.63754,4.08311 -3.04409,7.46207 -4.4274,10.63681zM275.59048,215.46614c0.84452,-0.0256 1.12112,-0.32104 1.09669,-1.17114c-0.04031,-1.36565 -0.03266,-2.75278 -0.02413,-4.09429l0.00441,-0.81715l0.24688,-2.54032c-0.005,-1.37035 -0.00971,-2.73983 0.01471,-4.1093v-0.00677c0.00677,-0.40255 0.01383,-0.81686 -0.14919,-0.95928c-0.12182,-0.10711 -0.38783,-0.09328 -0.58998,-0.06297c-2.76837,0.42696 -5.58765,0.38959 -8.31394,0.35134c-0.68827,-0.00883 -1.37653,-0.01854 -2.06362,-0.0206h-0.01266c-0.64501,0 -0.84628,0.18567 -0.89719,0.81686c-0.2766,3.43987 -0.60352,7.09572 -1.02873,11.50545c-0.04825,0.49259 -0.00707,0.7842 0.13242,0.94722c0.13271,0.1533 0.39372,0.23776 0.79921,0.25924c3.03556,0.16096 6.12585,0.05708 9.11226,-0.04414zM314.87292,273.14967c0.79244,-4.1046 0.93574,-8.22184 0.90719,-13.14005c-0.07239,-12.37822 -3.12059,-24.44423 -6.06846,-36.11418c-0.57439,-2.27255 -1.14878,-4.54539 -1.7014,-6.82088c-0.25924,-1.06521 -0.72475,-1.34505 -1.92033,-1.13583c-6.40068,1.10141 -12.96939,1.56192 -19.32093,2.00654c-1.4754,0.10329 -2.95198,0.20627 -4.4274,0.31721c-11.5802,0.87394 -21.07528,0.71387 -29.88299,-0.50053c-1.60017,-0.22187 -2.00448,0.05003 -2.43557,1.60517c-4.24201,15.27989 -6.44012,29.70408 -6.72083,44.09678c-0.01177,0.62442 -0.03326,1.24883 -0.05385,1.87412v0.00176c-0.08151,2.44292 -0.16596,4.97029 0.30721,7.43764c0.2563,1.34211 0.96487,2.19604 2.29815,2.77043c0.56644,0.24335 0.79038,0.18332 0.87276,0.12653c0.13742,-0.09622 0.19922,-0.38695 0.17273,-0.81686c-0.01177,-0.20627 -0.02854,-0.41432 -0.04414,-0.62353l-0.00059,-0.00589c-0.08416,-1.09669 -0.17155,-2.23165 0.22452,-3.48194l0.13653,-0.42991l0.34545,0.29043c0.82716,0.69592 0.80774,1.41155 0.79214,1.98829v0.00265l-0.00059,0.02737c-0.00383,0.14183 -0.00736,0.28073 0.00648,0.41343c0.37194,3.59789 0.37194,3.59789 3.81386,3.98365l0.15713,0.01766c0.73623,0.08239 1.20174,0.00589 1.43627,-0.22981c0.23246,-0.23364 0.30514,-0.69797 0.22275,-1.41861c-0.02854,-0.24953 -0.06415,-0.49906 -0.09976,-0.74859c-0.0974,-0.68326 -0.19509,-1.36859 -0.14949,-2.05862c0.04531,-0.6862 0.26483,-1.83793 0.99488,-2.12571c0.487,0.44639 0.43697,1.27796 0.39342,2.00743c-0.01618,0.26836 -0.03148,0.52319 -0.01883,0.73976c0.08445,1.44068 0.1639,2.80133 0.82451,3.49048c0.73212,0.76595 1.98388,0.53231 3.30922,0.28484c0.75594,-0.14153 1.53749,-0.28572 2.26489,-0.25336c0.13948,0.01088 0.29191,-0.01412 0.45433,-0.04061l0.03354,-0.00559l0.1739,-0.02648c0.38283,-0.05414 0.62442,-0.16126 0.74123,-0.32898c0.11299,-0.1642 0.12976,-0.42814 0.04914,-0.78744c-0.5329,-2.37172 -0.43962,-4.78992 -0.3484,-7.12721c0.02943,-0.76948 0.05885,-1.53926 0.06768,-2.30786c0.00059,-0.09946 -0.00265,-0.20098 -0.00589,-0.30397c-0.00059,-0.02178 -0.00147,-0.04414 -0.00206,-0.06621c-0.02854,-0.76095 -0.06385,-1.70816 1.13289,-2.46117l0.35546,-0.22275l0.09917,0.40755c0.48199,1.98888 0.52407,3.87095 0.56438,5.69093c0.01471,0.67149 0.02943,1.33711 0.0668,2.00065c0.26718,4.83494 1.18114,5.75184 6.11408,6.13467c5.16539,0.40196 10.40346,0.03972 15.46615,-0.31073l0.00942,-0.00059c1.16232,-0.08062 2.32463,-0.16096 3.48695,-0.23276c1.37035,-0.08357 1.68845,-0.83922 2.05068,-2.07334c0.50053,-1.71023 0.71563,-3.50961 0.92279,-5.24925c0.12771,-1.07316 0.25924,-2.18251 0.45757,-3.26625c0.0306,-0.16685 0.04325,-0.36223 0.05708,-0.56438c0.0412,-0.59881 0.08828,-1.27737 0.53997,-1.64637c0.24453,-0.20009 0.57145,-0.27778 0.97487,-0.22275c0.44256,0.05797 0.77154,0.22981 0.9787,0.50847c0.37695,0.50936 0.25718,1.23294 0.15125,1.87206c-0.03148,0.19126 -0.06297,0.37782 -0.07768,0.54673l-0.0362,0.43109c-0.26013,3.10912 -0.53025,6.32329 -1.57075,9.36356c-0.17655,0.51465 -0.20892,0.85216 -0.09711,1.00341c0.07357,0.09828 0.28955,0.20922 0.90602,0.18567c0.67944,-0.02737 1.47658,-0.03531 2.23047,0.10122c0.61824,0.11299 1.05227,0.06209 1.29179,-0.15301c0.25336,-0.22275 0.35841,-0.66649 0.32104,-1.35476c-0.05385,-0.994 -0.11094,-3.88154 1.22882,-4.15432c0.54614,1.29267 0.49612,2.99112 0.3431,4.35971c-0.07562,0.67532 0.00794,1.12671 0.25718,1.38006c0.25924,0.26218 0.748,0.35163 1.48835,0.28278c0.9425,-0.09034 2.05185,-0.1845 3.15826,-0.16596c0.92073,-0.02648 1.50866,-0.1639 1.83175,-0.5379c0.31809,-0.37106 0.40225,-0.97781 0.25512,-1.85441l-0.05797,-0.32604l-0.00118,-0.00618c-0.15772,-0.86717 -0.33634,-1.84882 0.19863,-2.96435l0.23276,-0.48493l0.29249,0.45169c0.70975,1.09582 0.79803,2.14807 0.87659,3.07675c0.02148,0.2563 0.04325,0.50936 0.07651,0.75977l0.01383,0.10211c0.09152,0.69797 0.16508,1.00018 0.90719,0.98459c2.67009,-0.10594 4.20964,-1.40566 4.70429,-3.97482z" data-paper-data="{&quot;isPathIcon&quot;:true}" style="animation-play-state: running;"></path></g></g></g></svg>